# xmcd
#
# Track frame offsets:
#	150
#	10780
#	22272
#	32755
#	43385
#	53405
#	65245
#	75332
#	86827
#	97497
#	108947
#	119837
#	132352
#	143470
#	153975
#	166187
#	180880
#	191990
#	202077
#	211837
#	221685
#	234695
#	246240
#	254700
#	263977
#	272847
#
# Disc length: 3769 seconds
#
# Revision: 1
# Processed by: cddbd v1.5.2PL0 Copyright (c) Steve Scherf et al.
# Submitted via: EasyCDDAExtractor 10.2.0.1
#
DISCID=8b0eb71a
DTITLE=Flatt and Scruggs - Foggy Mountain Gospel CD2 (2005)
DYEAR=1900
DGENRE=Bluegrass Gospel
TTITLE0=I'm on My Way To Canaan's Land
TTITLE1=Angel Band
TTITLE2=When The Angels Carry Me Home
TTITLE3=I'll Never Be Lonesome Again
TTITLE4=Get On The Road To Glory
TTITLE5=Take Me In Your Lifeboat
TTITLE6=Bubbling In My Soul-1959
TTITLE7=Heaven-1959
TTITLE8=Joy Bells-1959
TTITLE9=Give Me The Flowers (While I'm Living)-1959
TTITLE10=You Can Feel It In Your Soul
TTITLE11=Give Mother My Crown
TTITLE12=On The Rock Where Moses Stood
TTITLE13=Where Will I Shelter My Sheep
TTITLE14=I Saw Mother With God Last Night
TTITLE15=Go Home
TTITLE16=Father's Table Grace
TTITLE17=I'm Walking With Him
TTITLE18=God Gave Noah The Rainbow Sign
TTITLE19=When The Saints Go Marching In
TTITLE20=Troublesome Waters
TTITLE21=No Mother In This World Today-1966
TTITLE22=A Stone The Builders Refused
TTITLE23=Call Me On Home, Too
TTITLE24=Wait For The Sunshine
TTITLE25=Thank God I'm On My Way
EXTD=
EXTT0=
EXTT1=
EXTT2=
EXTT3=
EXTT4=
EXTT5=
EXTT6=
EXTT7=
EXTT8=
EXTT9=
EXTT10=
EXTT11=
EXTT12=
EXTT13=
EXTT14=
EXTT15=
EXTT16=
EXTT17=
EXTT18=
EXTT19=
EXTT20=
EXTT21=
EXTT22=
EXTT23=
EXTT24=
EXTT25=
PLAYORDER=
